<svg width="32" height="32" viewBox="0 0 32 32" fill="none" xmlns="http://www.w3.org/2000/svg">
<rect width="32" height="32" rx="5" fill="#506CF0"/>
<path fill-rule="evenodd" clip-rule="evenodd" d="M16.846 23.5C19.1778 23.5 20.7254 22.7541 22.0873 21.5525C22.3143 21.3453 22.5 21.0345 22.5 20.6409C22.5 19.9986 21.9429 19.4599 21.3032 19.4599C20.9937 19.4599 20.7254 19.5843 20.5397 19.75C19.4873 20.6409 18.4556 21.1381 16.9286 21.1381C14.1635 21.1381 12.1619 18.8384 12.1619 16V15.9586C12.1619 13.1202 14.1841 10.8412 16.9286 10.8412C18.3111 10.8412 19.3841 11.3384 20.3746 12.1464C20.5397 12.2707 20.7873 12.395 21.1381 12.395C21.8397 12.395 22.3968 11.8564 22.3968 11.1519C22.3968 10.6961 22.1698 10.3439 21.9016 10.1367C20.6429 9.16298 19.1778 8.5 16.9492 8.5C12.5746 8.5 9.5 11.8771 9.5 16V16.0414C9.5 20.2058 12.6365 23.5 16.846 23.5Z" fill="white"/>
</svg>
