<svg width="24" height="24" viewBox="0 0 24 24" fill="none" xmlns="http://www.w3.org/2000/svg">
<path d="M22 11.1251C22 16.1879 17.5022 20.2514 12 20.2514C11.2878 20.2514 10.5945 20.1811 9.92337 20.0517" stroke-width="1.5" stroke-linecap="round" stroke-linejoin="round"/>
<path d="M5.9989 18.4143C3.57779 16.7523 2.00002 14.1177 2.00002 11.1251" stroke-width="1.5" stroke-linecap="round" stroke-linejoin="round"/>
<path d="M5.99888 18.4138C5.99777 19.3663 5.99999 20.6513 5.99999 21.9998" stroke-width="1.5" stroke-linecap="round" stroke-linejoin="round"/>
<path d="M2.00001 11.1251C2.00001 6.06231 6.49778 2 12 2C17.5022 2 22 6.06343 22 11.1263" stroke-width="1.5" stroke-linecap="round" stroke-linejoin="round"/>
<path d="M9.92225 20.0478L6.00004 21.9997" stroke-width="1.5" stroke-linecap="round" stroke-linejoin="round"/>
<path d="M12.1607 11.3848C12.2494 11.4736 12.2494 11.6175 12.1607 11.7063C12.0719 11.795 11.928 11.795 11.8393 11.7063C11.7505 11.6175 11.7505 11.4736 11.8393 11.3848C11.928 11.2961 12.0719 11.2961 12.1607 11.3848" stroke-width="1.5" stroke-linecap="round" stroke-linejoin="round"/>
<path d="M16.2516 11.3848C16.3403 11.4736 16.3403 11.6175 16.2516 11.7063C16.1628 11.795 16.0189 11.795 15.9302 11.7063C15.8414 11.6175 15.8414 11.4736 15.9302 11.3848C16.0189 11.2961 16.1628 11.2961 16.2516 11.3848" stroke-width="1.5" stroke-linecap="round" stroke-linejoin="round"/>
<path d="M8.06981 11.3848C8.15857 11.4735 8.15857 11.6174 8.06981 11.7062C7.98105 11.7949 7.83715 11.7949 7.7484 11.7062C7.65964 11.6174 7.65964 11.4735 7.7484 11.3848C7.83715 11.296 7.98105 11.296 8.06981 11.3848" stroke-width="1.5" stroke-linecap="round" stroke-linejoin="round"/>
</svg>
