<svg width="24" height="24" viewBox="0 0 24 24" fill="none" xmlns="http://www.w3.org/2000/svg">
<path d="M5.24327 13.3333V8.8C5.24327 5.04413 8.2684 2 12 2C12.8869 1.99955 13.7652 2.17509 14.5847 2.51658C15.4042 2.85807 16.149 3.35883 16.7764 3.99027C17.4038 4.6217 17.9016 5.37145 18.2414 6.19671C18.5812 7.02197 18.7564 7.90657 18.7568 8.8V13.3333C18.7568 14.4508 19.2608 15.5082 20.1259 16.2086L20.4736 16.4897C21.5052 17.3238 20.9191 19 19.5961 19H4.40402C3.08101 19 2.49489 17.3238 3.52651 16.4897L3.87414 16.2086C4.3015 15.8632 4.6464 15.4255 4.88337 14.9279C5.12035 14.4302 5.24334 13.8853 5.24327 13.3333Z" stroke-width="1.5" stroke-linecap="round" stroke-linejoin="round"/>
<path d="M10.8637 22H13.1364" stroke-width="1.5" stroke-linecap="round" stroke-linejoin="round"/>
</svg>
